<?xml version="1.0" encoding="utf-8"?>
<!-- Generator: Adobe Illustrator 26.5.0, SVG Export Plug-In . SVG Version: 6.00 Build 0)  -->
<svg version="1.1" id="Layer_1" xmlns="http://www.w3.org/2000/svg" xmlns:xlink="http://www.w3.org/1999/xlink" x="0px" y="0px"
	 viewBox="0 0 180 180" style="enable-background:new 0 0 180 180;" xml:space="preserve">
<style type="text/css">
	.st0{fill:#0077B3;}
	.st1{fill:#FFFFFF;}
</style>
<path class="st0" d="M9,0h162c5,0,9,4,9,9v162c0,5-4,9-9,9H9c-5,0-9-4-9-9V9C0,4,4,0,9,0z"/>
<path class="st1" d="M108.2,95.5c25.4-10.1,37.8-38.9,27.8-64.3C128.5,12.4,110.3,0,90,0v81H54V45H36v36H0v18h36v36h18V99h36v81h18
	v-59.3l59.3,59.3h3.7c5,0,9-4,9-9v-3.7L108.2,95.5z M108,23.7c14.3,9.9,17.8,29.5,7.9,43.8c-2.1,3.1-4.8,5.7-7.9,7.9V23.7z"/>
</svg>
